<svg xmlns="http://www.w3.org/2000/svg" width="2000" height="2431" viewBox="0 0 2000 2431" version="1.1"><path d="M -0 1215.501 L -0 2428.001 1000.250 2427.750 L 2000.500 2427.500 2000.750 1215 L 2001.001 2.500 1000.500 2.751 L 0 3.002 -0 1215.501 M 0.498 1215.500 C 0.498 1882.650, 0.612 2155.725, 0.750 1822.333 C 0.888 1488.941, 0.888 943.091, 0.750 609.333 C 0.612 275.575, 0.498 548.350, 0.498 1215.500 M 56 1215.500 L 56 2371 1000 2371 L 1944 2371 1944 1215.500 L 1944 60 1000 60 L 56 60 56 1215.500 M 170 1215.500 L 170 2258 1000 2258 L 1830 2258 1830 1215.500 L 1830 173 1000 173 L 170 173 170 1215.500 M 872.501 344.246 C 870.771 349.182, 340 2086.351, 340 2087.076 C 340 2087.637, 392.773 2088, 474.321 2088 L 608.641 2088 673.491 1863.498 L 738.340 1638.996 998.827 1639.248 L 1259.315 1639.500 1325.343 1863.750 L 1391.371 2088 1525.765 2088 C 1660.159 2088, 1660.159 2088, 1659.538 2085.250 C 1659.197 2083.738, 1539.291 1691.225, 1393.079 1213 L 1127.241 343.500 1000.090 343.246 C 898.881 343.044, 872.851 343.248, 872.501 344.246 M 903.924 1071.252 L 808.348 1396.500 998.338 1396.753 C 1102.833 1396.892, 1188.499 1396.835, 1188.707 1396.626 C 1189.208 1396.125, 1000.647 746.008, 1000 746.006 C 999.725 746.004, 956.491 892.365, 903.924 1071.252" stroke="none" fill="#04040c" fill-rule="evenodd"/><path d="M 56 1215.500 L 56 2371 1000 2371 L 1944 2371 1944 1215.500 L 1944 60 1000 60 L 56 60 56 1215.500 M 170 1215.500 L 170 2258 1000 2258 L 1830 2258 1830 1215.500 L 1830 173 1000 173 L 170 173 170 1215.500 M 872.501 344.246 C 870.771 349.182, 340 2086.351, 340 2087.076 C 340 2087.637, 392.773 2088, 474.321 2088 L 608.641 2088 673.491 1863.498 L 738.340 1638.996 998.827 1639.248 L 1259.315 1639.500 1325.343 1863.750 L 1391.371 2088 1525.765 2088 C 1660.159 2088, 1660.159 2088, 1659.538 2085.250 C 1659.197 2083.738, 1539.291 1691.225, 1393.079 1213 L 1127.241 343.500 1000.090 343.246 C 898.881 343.044, 872.851 343.248, 872.501 344.246 M 903.924 1071.252 L 808.348 1396.500 998.338 1396.753 C 1102.833 1396.892, 1188.499 1396.835, 1188.707 1396.626 C 1189.208 1396.125, 1000.647 746.008, 1000 746.006 C 999.725 746.004, 956.491 892.365, 903.924 1071.252" stroke="none" fill="#935bfa" fill-rule="evenodd"/></svg>